<?xml version="1.0" encoding="UTF-8"?>
<svg id="Layer_1" data-name="Layer 1" xmlns="http://www.w3.org/2000/svg" viewBox="0 0 167.85 56.39">
  <defs>
    <style>
      .cls-1 {
        fill: #fff;
      }

      .cls-2 {
        fill: #939598;
      }
    </style>
  </defs>
  <polygon class="cls-2" points="92.57 32.7 101.3 25.36 121.25 24.62 130.67 24.62 122.02 32.71 105.39 33.57 92.57 32.7"/>
  <path class="cls-1" d="M160.56,37.82c-.6-4.31,4.36-12.59,4.64-12.8-10.68,2.28-22.47,4.3-35.27,5.75-13.94,1.58-25.62,1.84-37.35,1.93,.88,8.1,.38,15.6,1.27,23.7,11.95-.53,24.74-.46,38.06-1.94,12.67-1.4,24.67-3.16,35.94-5.14-.44-4.05-6.73-7.46-7.29-11.5Zm-54.79,14.56l-5.16,.12c-.62,.01-.97-.32-.98-.94l-.33-14.88c-.01-.62,.32-.97,.94-.98l.86-.02c.62-.01,.97,.31,.98,.94l.3,13.34,3.33-.07c.62-.01,.97,.31,.98,.94v.58c.03,.62-.3,.97-.93,.98Zm9.08-16.16l-2.57,9.88,.25,5.01c.03,.62-.29,.97-.91,1.01l-.86,.04c-.62,.03-.98-.29-1.01-.91l-.25-5.01-3.52-9.58c-.25-.64,.04-1.08,.74-1.12l.93-.05c.58-.03,.92,.22,1.1,.79l2.02,6.87,1.34-7.03c.12-.58,.44-.86,1.01-.89l.89-.04c.7-.03,1.03,.38,.84,1.04Zm8.58,.73l-3.52,.27,.36,4.71,2.78-.21c.62-.05,.98,.26,1.03,.88l.04,.53c.05,.62-.26,.98-.88,1.03l-2.78,.21,.47,6.2c.05,.62-.26,.98-.88,1.03l-.86,.06c-.62,.05-.98-.26-1.03-.88l-1.12-14.84c-.05-.62,.26-.98,.88-1.03l5.34-.4c.62-.05,.98,.26,1.03,.88l.04,.53c.05,.62-.26,.98-.88,1.03Zm9.09-.88l-1.84,.18,1.33,13.33c.06,.62-.24,.99-.86,1.05l-.86,.08c-.62,.06-.99-.24-1.05-.86l-1.33-13.33-1.84,.18c-.62,.06-.99-.24-1.05-.86l-.05-.53c-.06-.62,.24-.99,.86-1.05l6.45-.64c.62-.06,.99,.24,1.05,.86l.05,.53c.06,.62-.24,.99-.86,1.05Zm10.64,13.19l-5.48,.67c-.62,.08-.99-.22-1.07-.84l-1.81-14.77c-.08-.62,.22-.99,.84-1.07l5.41-.66c.62-.08,.99,.22,1.07,.84l.06,.52c.08,.62-.22,.99-.84,1.07l-3.6,.44,.56,4.57,2.86-.35c.62-.08,.99,.22,1.07,.84l.06,.52c.08,.62-.22,.99-.84,1.07l-2.86,.35,.59,4.81,3.67-.45c.62-.08,.99,.22,1.07,.84l.06,.53c.08,.62-.22,.99-.84,1.07Zm7.44-15.55l-1.83,.27,1.94,13.25c.09,.62-.19,1-.81,1.09l-.86,.12c-.62,.09-1-.19-1.09-.81l-1.94-13.25-1.83,.27c-.62,.09-1-.19-1.09-.81l-.08-.52c-.09-.62,.19-1,.81-1.09l6.41-.94c.62-.09,1,.19,1.09,.81l.08,.52c.09,.62-.19,1-.81,1.09Z"/>
  <g>
    <path class="cls-1" d="M99.92,7.29c-.91,.05-1.52,.42-1.45,1.62l.5,9.21c.07,1.2,.71,1.5,1.62,1.45,.91-.05,1.52-.42,1.45-1.62l-.5-9.21c-.07-1.2-.71-1.5-1.62-1.45Z"/>
    <path class="cls-1" d="M47.4,15.05c-.23-1.18-.91-1.39-1.8-1.21l-1.44,.28,1.03,5.3,1.44-.28c.9-.17,1.44-.62,1.21-1.8l-.45-2.28Z"/>
    <polygon class="cls-1" points="73.77 17.98 76.11 17.72 74.13 10.43 73.77 17.98"/>
    <path class="cls-1" d="M130.01,0c-19.97,.87-43.32,.97-67.06,4.54C39.41,8.08,19.21,14.51,0,19.5c.6,4.03,8.97,5.88,9.58,9.91,.78,5.23-3.25,8.04-5.95,14.26,19.58-4.75,39.79-10.95,63.03-14.44,23.44-3.52,43.76-3.4,64.02-4.61-1.21-8.06,.55-16.56-.66-24.62ZM19.2,35.6l-.81,.29c-.59,.21-1.02,0-1.23-.58l-5.06-13.99c-.21-.58-.01-1.02,.58-1.23l.81-.29c.59-.21,1.02-.01,1.23,.58l5.06,13.99c.21,.58,.01,1.02-.58,1.23Zm11.15-3.54l-.83,.25c-.53,.16-.95,0-1.26-.45l-6.15-8.73,2.84,9.54c.18,.6-.05,1.02-.65,1.19l-.6,.18c-.6,.18-1.02-.05-1.19-.65l-4.24-14.26c-.18-.6,.05-1.02,.65-1.19l.97-.29c.53-.16,.95,0,1.26,.45l5.86,8.27-2.69-9.04c-.18-.6,.05-1.01,.65-1.19l.6-.18c.6-.18,1.02,.05,1.19,.65l4.24,14.26c.18,.6-.05,1.02-.65,1.19Zm7.43-1.68h-.05c-2.48,.6-4.25,.11-4.85-2.43l-.46-1.92c-.14-.61,.1-1.01,.71-1.16l.79-.19c.61-.15,1.01,.1,1.16,.71l.37,1.54c.24,1,.93,1.31,1.75,1.11,.82-.2,1.3-.78,1.06-1.78l-.31-1.29c-.2-.84-.56-1.2-1.48-1.45l-2.15-.62c-1.81-.53-2.89-1.06-3.3-2.77l-.51-2.15c-.58-2.43,.97-3.79,3.21-4.32h.05c2.24-.55,4.24-.04,4.82,2.39l.41,1.73c.14,.61-.1,1.01-.71,1.16l-.79,.19c-.61,.14-1.01-.1-1.16-.71l-.32-1.36c-.25-1.03-.92-1.26-1.71-1.07s-1.29,.7-1.04,1.73l.27,1.12c.2,.84,.57,1.15,1.45,1.41l2.17,.62c1.78,.51,2.88,1.01,3.3,2.77l.56,2.36c.6,2.52-.75,3.78-3.23,4.38Zm9.41-8.87l-1.53,.3,1.06,5.44c.12,.61-.15,1.01-.76,1.13l-.85,.16c-.61,.12-1.01-.15-1.12-.76l-2.84-14.6c-.12-.61,.15-1.01,.76-1.12l3.32-.65c2.5-.49,4.34,.18,4.82,2.68l.61,3.13c.49,2.5-.97,3.81-3.47,4.29Zm9.52,4.91l-.85,.14c-.62,.1-1-.17-1.1-.79l-2.43-14.67c-.1-.62,.17-1,.79-1.1l.85-.14c.62-.1,1,.17,1.1,.79l2.43,14.68c.1,.61-.17,1-.79,1.1Zm11.81-1.75l-.83,.12c-.55,.08-.94-.11-1.18-.63l-2.67-5.59-1.4,.2,.79,5.68c.09,.62-.2,1-.82,1.08l-.86,.12c-.62,.09-1-.2-1.08-.82l-2.06-14.74c-.09-.62,.2-1,.82-1.08l3.35-.47c2.52-.35,4.32,.41,4.67,2.93l.42,2.97c.22,1.59-.3,2.68-1.38,3.34l2.85,5.68c.3,.61,.06,1.11-.63,1.2Zm10.96-1.25l-.88,.1c-.57,.06-.96-.19-1.12-.77l-.76-2.79-3.05,.33-.14,2.89c-.03,.61-.36,.93-.93,1l-.74,.08c-.64,.07-1.02-.25-.97-.93l1.12-15.12c.03-.58,.38-.91,.96-.97l1.72-.19c.57-.06,.99,.18,1.14,.75l4.42,14.51c.19,.66-.1,1.05-.75,1.12Zm7.01-15.05l-1.84,.16,1.18,13.34c.06,.62-.25,.99-.87,1.04l-.86,.08c-.62,.05-.99-.25-1.04-.87l-1.18-13.34-1.84,.16c-.62,.05-.99-.25-1.04-.87l-.05-.53c-.05-.62,.25-.99,.87-1.04l6.46-.57c.62-.05,.99,.25,1.04,.87l.05,.53c.06,.62-.25,.99-.87,1.04Zm6.02,13.95l-.86,.06c-.62,.04-.98-.27-1.03-.89l-1.07-14.84c-.04-.62,.27-.98,.89-1.03l.86-.06c.62-.04,.98,.27,1.03,.89l1.07,14.84c.04,.62-.27,.98-.89,1.03Zm8.31-.33h-.19c-2.54,.15-4.27-.76-4.41-3.31l-.55-10.07c-.14-2.57,1.48-3.64,4.02-3.78h.19c2.54-.15,4.27,.77,4.41,3.31l.55,10.07c.14,2.54-1.48,3.64-4.02,3.78Zm14.89-.81l-.86,.03c-.55,.02-.92-.23-1.11-.75l-3.75-10,.33,9.95c.02,.62-.3,.97-.93,.99l-.62,.02c-.62,.02-.97-.3-.99-.93l-.5-14.87c-.02-.62,.3-.97,.93-.99l1.01-.04c.55-.02,.92,.23,1.11,.76l3.58,9.48-.32-9.42c-.02-.62,.3-.97,.93-.99l.62-.02c.62-.02,.97,.3,.99,.93l.5,14.87c.02,.62-.3,.97-.93,.99Zm7.77,.04h-.05c-2.54,.04-4.17-.83-4.2-3.44l-.03-1.97c0-.62,.32-.96,.95-.97h.82c.62-.02,.96,.31,.97,.94l.02,1.58c.01,1.03,.62,1.48,1.46,1.47s1.43-.48,1.42-1.51l-.02-1.32c-.01-.86-.28-1.29-1.13-1.74l-1.96-1.08c-1.65-.91-2.59-1.67-2.62-3.42l-.03-2.21c-.04-2.5,1.77-3.48,4.08-3.52h.05c2.3-.03,4.14,.9,4.18,3.4l.03,1.78c0,.62-.32,.96-.95,.97h-.82c-.62,.02-.96-.31-.97-.93l-.02-1.39c-.02-1.06-.62-1.43-1.44-1.42-.82,.01-1.41,.4-1.4,1.46l.02,1.15c.01,.86,.31,1.24,1.1,1.69l1.98,1.08c1.62,.89,2.59,1.62,2.62,3.42l.04,2.42c.04,2.59-1.56,3.53-4.1,3.56Z"/>
    <path class="cls-1" d="M64.57,12.3c-.17-1.19-.83-1.43-1.73-1.31l-1.45,.2,.73,5.2,1.45-.2c.9-.13,1.47-.55,1.31-1.73l-.3-2.16Z"/>
  </g>
</svg>