<?xml version="1.0" encoding="UTF-8"?>
<svg id="Layer_2" data-name="Layer 2" xmlns="http://www.w3.org/2000/svg" viewBox="0 0 361.18 121.35">
  <defs>
    <style>
      .cls-1 {
        fill: #cf9c2b;
      }

      .cls-2 {
        fill: #8e7e5e;
      }
    </style>
  </defs>
  <g id="Layer_1-2" data-name="Layer 1">
    <polygon class="cls-2" points="199.2 70.36 217.98 54.58 260.92 52.99 281.18 52.97 262.57 70.39 226.79 72.23 199.2 70.36"/>
    <path class="cls-1" d="M345.49,81.38c-1.3-9.28,9.37-27.09,9.98-27.54-22.97,4.9-48.36,9.25-75.91,12.37-30.01,3.4-55.13,3.97-80.36,4.15,1.9,17.43,.83,33.56,2.73,50.99,25.72-1.13,53.24-1,81.9-4.17,27.27-3.02,53.09-6.8,77.35-11.05-.95-8.71-14.48-16.06-15.69-24.74Zm-117.9,31.33l-11.1,.25c-1.34,.03-2.08-.68-2.11-2.02l-.71-32.01c-.03-1.34,.68-2.08,2.02-2.11l1.86-.04c1.34-.03,2.08,.68,2.11,2.02l.64,28.71,7.18-.16c1.34-.03,2.08,.67,2.11,2.02l.03,1.24c.03,1.34-.68,2.08-2.02,2.11Zm19.54-34.77l-5.53,21.26,.53,10.78c.07,1.34-.62,2.1-1.96,2.16l-1.86,.09c-1.34,.06-2.1-.63-2.16-1.96l-.53-10.78-7.58-20.62c-.53-1.37,.09-2.33,1.59-2.4l2.01-.1c1.24-.06,1.99,.47,2.36,1.7l4.34,14.78,2.88-15.13c.25-1.26,.94-1.86,2.18-1.92l1.91-.09c1.5-.07,2.21,.82,1.82,2.24Zm18.46,1.57l-7.57,.58,.77,10.14,5.97-.45c1.34-.1,2.12,.56,2.22,1.9l.09,1.13c.1,1.34-.57,2.12-1.9,2.22l-5.97,.45,1.01,13.34c.1,1.34-.56,2.11-1.9,2.21l-1.86,.14c-1.34,.1-2.11-.56-2.21-1.9l-2.42-31.93c-.1-1.34,.56-2.11,1.9-2.22l11.48-.87c1.34-.1,2.12,.57,2.22,1.9l.09,1.13c.1,1.34-.57,2.11-1.9,2.21Zm19.56-1.88l-3.96,.4,2.85,28.68c.13,1.34-.51,2.13-1.85,2.27l-1.85,.18c-1.34,.13-2.13-.51-2.26-1.85l-2.85-28.68-3.96,.4c-1.34,.13-2.13-.52-2.26-1.85l-.11-1.13c-.13-1.33,.51-2.13,1.85-2.26l13.88-1.38c1.34-.13,2.13,.52,2.26,1.85l.11,1.13c.13,1.34-.51,2.13-1.85,2.26Zm22.89,28.38l-11.79,1.45c-1.33,.16-2.14-.47-2.3-1.8l-3.9-31.79c-.16-1.33,.47-2.14,1.8-2.3l11.64-1.43c1.33-.16,2.14,.47,2.3,1.8l.14,1.13c.16,1.33-.47,2.14-1.8,2.3l-7.74,.95,1.21,9.84,6.15-.76c1.33-.16,2.14,.47,2.3,1.8l.14,1.13c.16,1.33-.47,2.14-1.8,2.3l-6.15,.76,1.27,10.36,7.9-.97c1.33-.16,2.14,.47,2.3,1.8l.14,1.13c.16,1.33-.47,2.14-1.8,2.3Zm16.02-33.47l-3.93,.57,4.17,28.52c.19,1.33-.42,2.15-1.75,2.34l-1.84,.27c-1.33,.2-2.15-.42-2.34-1.74l-4.17-28.52-3.93,.57c-1.33,.2-2.15-.42-2.34-1.74l-.16-1.13c-.19-1.33,.42-2.15,1.75-2.34l13.8-2.01c1.33-.2,2.15,.42,2.34,1.74l.16,1.12c.19,1.33-.42,2.15-1.75,2.34Z"/>
    <g>
      <path class="cls-1" d="M215.01,15.69c-1.96,.11-3.26,.9-3.12,3.48l1.08,19.81c.14,2.58,1.52,3.23,3.48,3.12,1.96-.11,3.26-.9,3.12-3.48l-1.08-19.81c-.14-2.58-1.52-3.23-3.48-3.12Z"/>
      <path class="cls-1" d="M102,32.39c-.49-2.54-1.95-2.99-3.88-2.61l-3.09,.6,2.22,11.4,3.09-.6c1.93-.38,3.11-1.34,2.61-3.88l-.96-4.92Z"/>
      <polygon class="cls-1" points="158.75 38.68 163.78 38.13 159.51 22.44 158.75 38.68"/>
      <path class="cls-1" d="M279.77,0c-42.97,1.88-93.22,2.08-144.31,9.76C84.81,17.38,41.34,31.22,0,41.96c1.3,8.67,19.31,12.66,20.61,21.32,1.69,11.26-7,17.31-12.81,30.69,42.13-10.23,85.61-23.56,135.63-31.08,50.44-7.58,94.17-7.32,137.76-9.92-2.6-17.34,1.18-35.63-1.42-52.97ZM41.32,76.62l-1.75,.63c-1.26,.46-2.19,.02-2.64-1.24l-10.89-30.11c-.46-1.26-.02-2.19,1.24-2.64l1.75-.63c1.26-.46,2.19-.03,2.64,1.24l10.89,30.11c.46,1.26,.02,2.19-1.24,2.64Zm24-7.62l-1.78,.53c-1.14,.34-2.04,.01-2.71-.98l-13.24-18.79,6.11,20.54c.38,1.29-.11,2.19-1.39,2.57l-1.29,.38c-1.29,.39-2.19-.1-2.57-1.39l-9.13-30.68c-.38-1.29,.1-2.19,1.39-2.57l2.08-.62c1.14-.34,2.04-.01,2.71,.97l12.62,17.79-5.78-19.45c-.38-1.29,.11-2.18,1.39-2.57l1.29-.38c1.29-.38,2.19,.1,2.57,1.39l9.13,30.69c.38,1.29-.11,2.19-1.39,2.57Zm15.99-3.61l-.1,.02c-5.33,1.27-9.14,.21-10.45-5.26l-.98-4.12c-.31-1.3,.22-2.18,1.53-2.49l1.71-.4c1.31-.31,2.18,.22,2.49,1.53l.79,3.32c.51,2.16,2,2.82,3.76,2.4,1.76-.42,2.79-1.67,2.27-3.84l-.66-2.77c-.43-1.81-1.2-2.58-3.19-3.12l-4.62-1.34c-3.89-1.14-6.23-2.28-7.1-5.95l-1.1-4.62c-1.25-5.23,2.09-8.15,6.92-9.3l.1-.03c4.82-1.15,9.12-.05,10.37,5.18l.89,3.72c.31,1.31-.22,2.18-1.53,2.49l-1.71,.41c-1.31,.31-2.18-.22-2.49-1.53l-.7-2.92c-.53-2.21-1.98-2.71-3.69-2.31s-2.77,1.51-2.24,3.72l.58,2.41c.43,1.81,1.23,2.47,3.11,3.03l4.67,1.33c3.82,1.1,6.2,2.18,7.1,5.95l1.21,5.07c1.3,5.43-1.62,8.14-6.94,9.41Zm20.25-19.08l-3.29,.64,2.28,11.71c.26,1.32-.32,2.17-1.63,2.42l-1.83,.35c-1.32,.26-2.16-.31-2.42-1.63l-6.11-31.42c-.26-1.32,.32-2.16,1.63-2.42l7.14-1.39c5.37-1.04,9.33,.39,10.38,5.77l1.31,6.74c1.04,5.37-2.09,8.19-7.46,9.24Zm20.49,10.56l-1.83,.3c-1.33,.22-2.16-.38-2.37-1.7l-5.23-31.58c-.22-1.33,.37-2.16,1.7-2.38l1.83-.3c1.33-.22,2.16,.38,2.37,1.7l5.23,31.58c.22,1.32-.37,2.16-1.7,2.37Zm25.42-3.76l-1.79,.25c-1.18,.16-2.02-.24-2.54-1.36l-5.75-12.03-3.02,.42,1.71,12.22c.18,1.33-.43,2.15-1.76,2.33l-1.84,.26c-1.33,.18-2.15-.43-2.33-1.76l-4.43-31.71c-.18-1.33,.43-2.15,1.76-2.33l7.21-1.01c5.42-.76,9.3,.89,10.06,6.31l.89,6.39c.48,3.43-.65,5.77-2.96,7.19l6.14,12.23c.66,1.32,.13,2.38-1.36,2.59Zm23.59-2.69l-1.9,.21c-1.23,.13-2.07-.4-2.42-1.66l-1.65-6-6.57,.72-.3,6.22c-.07,1.3-.77,2-2,2.14l-1.59,.17c-1.38,.15-2.19-.54-2.09-2l2.4-32.53c.07-1.25,.82-1.96,2.06-2.1l3.7-.41c1.23-.13,2.12,.39,2.46,1.6l9.51,31.22c.41,1.41-.22,2.26-1.61,2.41Zm15.08-32.38l-3.96,.35,2.54,28.71c.12,1.34-.54,2.12-1.87,2.24l-1.85,.16c-1.34,.12-2.12-.54-2.24-1.88l-2.55-28.71-3.96,.35c-1.34,.12-2.12-.54-2.24-1.87l-.1-1.13c-.12-1.34,.54-2.12,1.87-2.24l13.89-1.23c1.34-.12,2.12,.54,2.24,1.88l.1,1.13c.12,1.34-.54,2.12-1.88,2.24Zm12.94,30.01l-1.85,.13c-1.34,.1-2.11-.57-2.21-1.91l-2.3-31.94c-.1-1.34,.57-2.11,1.91-2.21l1.86-.13c1.34-.09,2.11,.57,2.21,1.91l2.3,31.94c.09,1.34-.57,2.11-1.91,2.21Zm17.88-.71l-.41,.02c-5.47,.3-9.2-1.67-9.5-7.14l-1.19-21.66c-.3-5.52,3.19-7.83,8.66-8.13l.41-.02c5.47-.3,9.2,1.67,9.5,7.14l1.19,21.67c.3,5.47-3.19,7.83-8.66,8.13Zm32.04-1.75l-1.86,.06c-1.19,.04-1.98-.5-2.38-1.62l-8.06-21.53,.72,21.41c.05,1.34-.65,2.09-1.99,2.14l-1.34,.04c-1.34,.05-2.09-.65-2.13-1.99l-1.08-31.99c-.04-1.34,.65-2.09,2-2.13l2.17-.08c1.19-.04,1.98,.5,2.38,1.63l7.71,20.4-.68-20.28c-.05-1.34,.65-2.09,1.99-2.14l1.34-.04c1.34-.05,2.09,.65,2.13,1.99l1.08,31.99c.05,1.34-.65,2.09-1.99,2.13Zm16.71,.1h-.1c-5.48,.08-8.96-1.78-9.04-7.41l-.06-4.24c-.02-1.34,.69-2.07,2.04-2.1l1.76-.02c1.34-.02,2.08,.69,2.1,2.04l.05,3.41c.03,2.22,1.34,3.18,3.14,3.16s3.08-1.03,3.05-3.25l-.04-2.84c-.03-1.86-.61-2.78-2.43-3.73l-4.22-2.32c-3.54-1.96-5.58-3.59-5.63-7.35l-.07-4.75c-.08-5.37,3.82-7.49,8.78-7.57h.1c4.96-.07,8.91,1.94,8.99,7.31l.05,3.82c.02,1.34-.69,2.07-2.04,2.09l-1.76,.03c-1.34,.02-2.07-.69-2.1-2.04l-.04-2.99c-.03-2.27-1.34-3.08-3.09-3.06-1.75,.03-3.03,.87-3,3.14l.04,2.48c.03,1.86,.66,2.68,2.38,3.63l4.27,2.31c3.49,1.91,5.58,3.48,5.63,7.35l.08,5.22c.08,5.58-3.35,7.59-8.82,7.67Z"/>
      <path class="cls-1" d="M138.95,26.46c-.36-2.56-1.79-3.08-3.73-2.82l-3.12,.44,1.56,11.2,3.12-.43c1.94-.27,3.17-1.17,2.82-3.73l-.65-4.65Z"/>
    </g>
  </g>
</svg>